<svg width="158" height="234" viewBox="0 0 158 234" fill="none" xmlns="http://www.w3.org/2000/svg">
<path fill-rule="evenodd" clip-rule="evenodd" d="M32.833 28.4141L42.9355 10.6211L40.1289 30.8125L63 25.2412L52.2529 31.6709C61.0568 33.0943 67.7562 36.5697 72.9463 39.959C74.609 41.0448 76.1143 42.1206 77.4492 43.0879C78.8213 44.0822 79.9355 44.9045 80.9775 45.6152C83.1143 47.0726 83.8853 47.2647 83.9883 47.2871C84.0518 47.2752 84.2769 47.2264 84.7109 47.0312C85.3385 46.749 86.1441 46.2833 87.2217 45.5723C88.2983 44.8618 89.4597 44.0336 90.8623 43.0469C92.2313 42.0838 93.7682 41.0144 95.4521 39.9355C102.255 35.577 111.547 31 124.242 31C142.853 31.0001 158 45.9909 158 64.5566C158 88.0885 153.255 107.091 148.484 120.249C146.099 126.828 143.704 131.953 141.888 135.462C141.123 136.939 140.458 138.13 139.94 139.024C144.96 158.905 144.555 181.453 140.634 199.322C138.606 208.564 135.569 216.879 131.603 223.019C127.735 229.004 122.228 234 115.074 234C111.015 234 107.852 232.086 105.604 229.35C103.501 226.791 102.14 223.475 101.157 220.143C99.2001 213.504 98.2099 204.764 97.1504 196.789C96.0446 188.466 94.8562 180.866 92.6865 175.368C90.516 169.868 88.1595 168.261 85.4473 168.261C82.7059 168.261 80.2965 169.907 78.0723 175.407C75.8526 180.896 74.6055 188.497 73.5039 196.789C72.4475 204.741 71.5174 213.445 69.7744 220.011C68.9018 223.298 67.7005 226.582 65.8291 229.133C63.8326 231.854 60.8406 234 56.7861 234C50.3021 234 44.8213 229.589 40.6973 224.147C36.4372 218.526 32.8132 210.791 30.1494 201.874C24.9608 184.504 23.1436 161.726 28.1279 139.023C27.5998 138.054 26.8908 136.707 26.0605 135.01C24.2597 131.329 21.8788 125.992 19.5029 119.278C14.7555 105.864 10 86.8675 10 64.5566C10.0001 56.3399 12.9687 48.8247 17.8896 42.998H0L22.3096 36.8271L9.82227 25.2412L25.8174 31.8623L19.082 0L32.833 28.4141ZM124.242 41C114.163 41 106.758 44.5686 100.847 48.3555C99.3524 49.3128 97.9597 50.2797 96.6152 51.2256C95.3041 52.1479 93.9674 53.1021 92.7295 53.9189C90.5225 55.3753 87.4025 57.291 84 57.291C80.5572 57.291 77.4848 55.337 75.3428 53.876C74.1457 53.0595 72.8444 52.1003 71.582 51.1855C70.2825 50.2439 68.9338 49.2824 67.4785 48.332C64.4245 46.3376 60.8944 44.3859 56.6592 42.998H40.1289L51.6348 76L34.9375 45.5859V72.1377L29.4922 45.7168C23.7224 50.0205 20.0001 56.8679 20 64.5566C20 85.4646 24.461 103.315 28.9297 115.942C31.1618 122.249 33.3888 127.232 35.0439 130.615C35.8712 132.306 36.5539 133.596 37.0225 134.449C37.2567 134.876 37.4371 135.193 37.5547 135.396C37.6135 135.498 37.6573 135.572 37.6836 135.616C37.6966 135.638 37.7054 135.653 37.71 135.661C37.7122 135.665 37.7138 135.667 37.7139 135.667L37.7129 135.666L37.7119 135.664C38.3893 136.785 38.5995 138.127 38.2979 139.401C33.206 160.913 34.8606 182.709 39.7305 199.012C42.1693 207.176 45.3425 213.721 48.667 218.107C52.1275 222.674 55.0193 224 56.7861 224C56.8573 224 57.1258 224.091 57.7666 223.218C58.5327 222.174 59.3459 220.321 60.1094 217.445C61.6384 211.686 62.4638 203.955 63.5908 195.472C64.6726 187.329 66.0365 178.496 68.8018 171.658C71.5624 164.832 76.5121 158.261 85.4473 158.261C94.4119 158.261 99.2944 164.871 101.988 171.697C104.683 178.525 105.985 187.36 107.062 195.472C108.186 203.931 109.072 211.627 110.749 217.314C111.584 220.145 112.479 221.965 113.33 223.001C114.036 223.859 114.526 224 115.074 224C117.137 224 120.014 222.527 123.203 217.592C126.293 212.81 128.986 205.75 130.866 197.18C134.623 180.056 134.861 158.198 129.746 139.574C129.366 138.189 129.6 136.707 130.388 135.507L130.389 135.504L130.391 135.502C130.391 135.501 130.392 135.5 130.393 135.499C130.397 135.493 130.404 135.482 130.413 135.468C130.437 135.43 130.478 135.366 130.534 135.275C130.647 135.094 130.824 134.808 131.054 134.418C131.514 133.638 132.188 132.447 133.008 130.864C134.647 127.698 136.861 122.97 139.083 116.841C143.528 104.58 148 86.7352 148 64.5566C148 51.5797 137.396 41.0001 124.242 41Z" fill="black"/>
</svg>
