<svg width="100" height="100" viewBox="0 0 100 100" fill="none" xmlns="http://www.w3.org/2000/svg">
<rect width="100" height="100" fill="#647A9B"/>
<path d="M25 30.2095C25 24.571 29.5717 20 35.2112 20C43.6406 20 47.0671 25.8242 49.5 25.8242C51.9329 25.8242 55.7021 20 63.7888 20C69.4283 20 74 24.571 74 30.2095C74 46.5516 67.4552 56.5556 67.4552 56.5556C71.2587 70.4995 67.0783 89 60.5336 89C53.9888 89 58.3063 65.4975 50.014 65.4975C41.7217 65.4975 45.6965 89 39.8371 89C33.9776 89 27.7755 72.5894 31.5448 56.5556C31.5448 56.5556 25 45.6609 25 30.2095Z" fill="#BECEDC" stroke="white" stroke-width="4"/>
<path d="M25.1782 4L31.0713 16.3376L35.4009 8.61162L34.1982 17.3791L44 14.9601L35.7016 19.9909L41.9555 22.67H34.1982L39.1292 37L31.9733 23.794V35.323L29.6281 23.794L24.3964 29.5136L26.5612 22.67H17L26.5612 19.9909L21.2094 14.9601L28.0646 17.8348L25.1782 4Z" fill="white"/>
</svg>
